<?xml version="1.0" encoding="UTF-8" standalone="no"?>
<!-- Created with Inkscape (http://www.inkscape.org/) -->

<svg
   width="3.5in"
   height="2in"
   viewBox="0 0 336 192.00001"
   version="1.1"
   id="svg5"
   sodipodi:docname="business_card.svg"
   inkscape:version="1.1.2 (b8e25be8, 2022-02-05)"
   xmlns:inkscape="http://www.inkscape.org/namespaces/inkscape"
   xmlns:sodipodi="http://sodipodi.sourceforge.net/DTD/sodipodi-0.dtd"
   xmlns="http://www.w3.org/2000/svg"
   xmlns:svg="http://www.w3.org/2000/svg">
  <sodipodi:namedview
     id="namedview7"
     pagecolor="#ffffff"
     bordercolor="#666666"
     borderopacity="1.0"
     inkscape:pageshadow="2"
     inkscape:pageopacity="1"
     inkscape:pagecheckerboard="0"
     inkscape:document-units="mm"
     showgrid="false"
     units="in"
     inkscape:zoom="2.0899583"
     inkscape:cx="81.580577"
     inkscape:cy="94.977974"
     inkscape:window-width="1312"
     inkscape:window-height="1081"
     inkscape:window-x="1150"
     inkscape:window-y="157"
     inkscape:window-maximized="0"
     inkscape:current-layer="layer1" />
  <defs
     id="defs2">
    <rect
       x="9.5695691"
       y="10.526526"
       width="129.66766"
       height="46.41241"
       id="rect759" />
  </defs>
  <g
     inkscape:groupmode="layer"
     id="layer3"
     inkscape:label="Layer 2"
     style="display:inline">
    <rect
       style="fill:#ffff00"
       id="rect4077"
       width="339.24121"
       height="194.26225"
       x="-0.95695692"
       y="-0.47847846" />
    <path
       style="fill:#ffffff;stroke-width:0.478478"
       d="M -0.95695691,96.652648 V -0.23923923 H 168.66366 338.28427 V 96.652648 193.54454 H 168.66366 -0.95695691 Z"
       id="path4247" />
  </g>
  <g
     inkscape:label="Layer 1"
     inkscape:groupmode="layer"
     id="layer1"
     style="display:inline">
    <text
       xml:space="preserve"
       id="text757"
       style="font-style:normal;font-weight:normal;font-size:40px;line-height:1.25;font-family:sans-serif;white-space:pre;shape-inside:url(#rect759);fill:#000000;fill-opacity:1;stroke:none" />
    <text
       xml:space="preserve"
       style="font-style:normal;font-weight:normal;font-size:24px;line-height:1.25;font-family:sans-serif;fill:#000000;fill-opacity:1;stroke:none"
       x="9.5695705"
       y="26.316317"
       id="text897"><tspan
         sodipodi:role="line"
         id="tspan895"
         x="9.5695705"
         y="26.316317"
         style="font-size:24px">Taylor Ertrachter</tspan></text>
    <path
       sodipodi:type="star"
       id="path3503"
       inkscape:flatsided="false"
       sodipodi:sides="5"
       sodipodi:cx="48.804803"
       sodipodi:cy="68.900902"
       sodipodi:r1="37.69062"
       sodipodi:r2="18.84531"
       sodipodi:arg1="-0.14010172"
       sodipodi:arg2="0.48821681"
       inkscape:rounded="0"
       inkscape:randomized="0"
       d="M 86.126123,63.637639 65.448428,77.740328 65.343386,102.76915 45.541172,87.461463 21.704889,95.095892 30.144143,71.532533 15.517553,51.222049 40.535512,51.966778 55.332065,31.779779 62.35476,55.803406 Z"
       inkscape:transform-center-x="-2.0170348"
       inkscape:transform-center-y="-1.6264378" />
    <path
       sodipodi:type="star"
       id="path3505"
       inkscape:flatsided="false"
       sodipodi:sides="5"
       sodipodi:cx="179.9079"
       sodipodi:cy="139.71571"
       sodipodi:r1="30.43138"
       sodipodi:r2="15.21569"
       sodipodi:arg1="0.64035647"
       sodipodi:arg2="1.268675"
       inkscape:rounded="0"
       inkscape:randomized="0"
       d="m 204.3103,157.89789 -19.87503,-3.65564 -14.27889,14.30013 -2.665,-20.03194 -18.01265,-9.16105 18.22797,-8.72477 3.14646,-19.96197 13.93051,14.63973 19.95727,-3.17613 -9.61845,17.77262 z"
       inkscape:transform-center-x="2.7980685"
       inkscape:transform-center-y="-0.11319976" />
    <path
       sodipodi:type="star"
       id="path3507"
       inkscape:flatsided="false"
       sodipodi:sides="5"
       sodipodi:cx="267.94794"
       sodipodi:cy="74.164162"
       sodipodi:r1="38.484067"
       sodipodi:r2="19.242035"
       sodipodi:arg1="0.67085747"
       sodipodi:arg2="1.299176"
       inkscape:rounded="0"
       inkscape:randomized="0"
       d="m 298.09209,98.088085 -24.98165,-5.387351 -18.60045,17.525106 -2.59607,-25.423735 -22.41523,-12.274521 23.37718,-10.325385 4.74708,-25.11118 17.04397,19.0423 25.34908,-3.245042 -12.84343,22.094174 z"
       inkscape:transform-center-x="3.190599"
       inkscape:transform-center-y="-0.50573031" />
    <path
       sodipodi:type="star"
       id="path3509"
       inkscape:flatsided="false"
       sodipodi:sides="5"
       sodipodi:cx="55.503502"
       sodipodi:cy="153.11311"
       sodipodi:r1="8.1200487"
       sodipodi:r2="4.0600243"
       sodipodi:arg1="0.78539816"
       sodipodi:arg2="1.4137167"
       inkscape:rounded="0"
       inkscape:randomized="0"
       d="m 61.245243,158.85485 -5.106613,-1.7317 -4.321553,3.22498 0.06892,-5.3918 -4.40257,-3.11347 5.149207,-1.60062 1.600615,-5.1492 3.113468,4.40257 5.391804,-0.0689 -3.224977,4.32155 z"
       inkscape:transform-center-x="0.39253055"
       inkscape:transform-center-y="-0.39253055" />
    <path
       sodipodi:type="spiral"
       style="fill:none;fill-rule:evenodd;stroke:#000000"
       id="path3534"
       sodipodi:cx="139.23723"
       sodipodi:cy="72.728729"
       sodipodi:expansion="1"
       sodipodi:revolution="3"
       sodipodi:radius="26.329361"
       sodipodi:argument="-19.1828"
       sodipodi:t0="0"
       d="m 139.23723,72.728729 c 1.24749,-0.431823 1.19755,1.468543 0.71772,2.073407 -1.30033,1.639144 -3.79712,0.791453 -4.86453,-0.637971 -1.90936,-2.556904 -0.54509,-6.125736 1.99365,-7.655655 3.72572,-2.245218 8.49154,-0.306889 10.44678,3.349348 2.60604,4.873189 0.0731,10.871258 -4.70503,13.237904 -6.01279,2.978183 -13.2578,-0.158232 -16.02903,-6.060726 -3.35633,-7.14871 0.38809,-15.648221 7.41641,-18.820153 8.28263,-3.738012 18.04107,0.617034 21.61128,8.772104 4.12195,9.41535 -0.84535,20.435521 -10.12779,24.402401 -10.5473,4.507422 -22.83111,-1.073248 -27.19353,-11.483481 -4.89397,-11.678708 1.30083,-25.227531 12.83917,-29.98465 12.80975,-5.281304 27.62457,1.52818 32.77578,14.194858" />
    <path
       sodipodi:type="spiral"
       style="fill:none;fill-rule:evenodd;stroke:#000000"
       id="path3536"
       sodipodi:cx="264.59857"
       sodipodi:cy="142.58658"
       sodipodi:expansion="1"
       sodipodi:revolution="3"
       sodipodi:radius="38.65028"
       sodipodi:argument="-18.302767"
       sodipodi:t0="0"
       d="m 264.59857,142.58658 c 1.65532,1.00759 -0.54153,2.72844 -1.67467,2.75125 -3.07076,0.0618 -4.44682,-3.55599 -3.82783,-6.1006 1.10723,-4.55172 6.4211,-6.34596 10.52653,-4.9044 6.02488,2.11554 8.2891,9.32063 5.98097,14.95245 -3.07637,7.50633 -12.23181,10.25027 -19.37838,7.05755 -8.99322,-4.01771 -12.22059,-15.1484 -8.13412,-23.8043 4.94926,-10.48347 18.068,-14.19622 28.23023,-9.21071 11.97584,5.87525 16.17513,20.98948 10.28728,32.65616 -6.79777,13.46964 -23.91221,18.15627 -37.08209,11.36385 -14.96445,-7.71797 -20.13895,-26.83581 -12.44042,-41.50801 8.63657,-16.45998 29.76007,-22.12275 45.93393,-13.517 17.95606,9.55401 24.1074,32.68481 14.59358,50.35986" />
    <path
       sodipodi:type="spiral"
       style="fill:none;fill-rule:evenodd;stroke:#000000"
       id="path3538"
       sodipodi:cx="100.48048"
       sodipodi:cy="125.36136"
       sodipodi:expansion="1"
       sodipodi:revolution="3"
       sodipodi:radius="16.930296"
       sodipodi:argument="-18.104136"
       sodipodi:t0="0"
       d="m 100.48048,125.36136 c 0.62374,0.57576 -0.46839,1.12485 -0.956961,1.0367 -1.324001,-0.23889 -1.602205,-1.9114 -1.116447,-2.95062 0.868907,-1.85891 3.305908,-2.17009 4.944278,-1.19619 2.40438,1.42924 2.7539,4.719 1.27594,6.93794 -1.9699,2.95749 -6.138657,3.34444 -8.931603,1.35568 -3.514637,-2.50265 -3.93845,-7.56142 -1.435425,-10.92526 3.031499,-4.07406 8.985938,-4.53447 12.918918,-1.51517 4.63489,3.55814 5.13174,10.41154 1.59492,14.91258 -4.08341,5.19663 -11.837884,5.72986 -16.906244,1.67466 -5.758994,-4.60778 -6.328564,-13.26473 -1.754404,-18.8999 5.131517,-6.32181 14.691948,-6.9277 20.893558,-1.83415 6.88497,5.6548 7.52715,16.11946 1.9139,22.88722" />
  </g>
</svg>
